# xmcd
#
# Track frame offsets:
#	150
#	20708
#	33375
#	45596
#
# Disc length: 782 seconds
#
# Revision: 0
# Processed by: cddbd v1.5.1PL0 Copyright (c) Steve Scherf et al.
# Submitted via: dBpowerAMP V4.0
#
DISCID=2b030c04
DTITLE=Sivert Bjørdal - Pure Country
DYEAR=2004
DGENRE=Country
TTITLE0=Wings of Love
TTITLE1=Cold Cold Heart
TTITLE2=I Could Never Be Ashamed Of You
TTITLE3=Weary Blues From Waiting
EXTD=
EXTT0=
EXTT1=
EXTT2=
EXTT3=
PLAYORDER=
